<?xml version="1.0" encoding="utf-8"?>
<!-- Generator: Adobe Illustrator 16.0.0, SVG Export Plug-In . SVG Version: 6.00 Build 0)  -->
<!DOCTYPE svg PUBLIC "-//W3C//DTD SVG 1.1//EN" "http://www.w3.org/Graphics/SVG/1.1/DTD/svg11.dtd">
<svg version="1.1" xmlns="http://www.w3.org/2000/svg" xmlns:xlink="http://www.w3.org/1999/xlink" x="0px" y="0px" width="640px"
	 height="360px" viewBox="0 0 640 360" enable-background="new 0 0 640 360" xml:space="preserve">
<g id="Layer_5">
	<rect fill="#75FFF2" width="640" height="360"/>
</g>
<g id="Normal">
	<polygon id="Normal_Horn" fill="#FFFFFF" stroke="#000000" stroke-width="8" stroke-miterlimit="19" points="384.638,178.258 
		485.331,91.918 401.757,190.276 	"/>
	<g>
		<path fill="#FFFFFF" d="M11.73,428.775l7.591-8.246c0.595-0.646,60.341-65.391,132.092-129.284
			c97.02-86.396,168.812-130.203,213.381-130.203c10.539,0,19.708,2.47,27.251,7.34c17.111,11.049,26.807,26.635,28.816,46.325
			c3.555,34.824-16.799,81.878-60.498,139.852c-32.188,42.707-65.857,75.926-66.193,76.258l-1.484,1.459L11.73,428.775z"/>
		<path d="M364.795,166.043c9.324,0,17.599,2.059,24.538,6.54c96.83,62.521-98.667,254.667-98.667,254.667L23,423.916
			C23,423.916,260.372,166.043,364.795,166.043 M364.795,156.043c-26.16,0-59.831,13.714-102.935,41.925
			c-33.092,21.658-71.371,51.785-113.771,89.542C76.154,351.568,16.239,416.494,15.643,417.143L0.461,433.635l22.414,0.279
			l267.667,3.334l4.164,0.053l2.97-2.92c1.384-1.359,34.271-33.811,66.682-76.813c44.481-59.014,65.165-107.25,61.479-143.369
			c-2.172-21.275-12.629-38.104-31.08-50.017C386.394,158.781,376.312,156.043,364.795,156.043L364.795,156.043z"/>
	</g>
	<circle fill="#FF4500" cx="362.167" cy="190.609" r="11.333"/>
	<path fill="none" stroke="#000000" stroke-width="10" stroke-linecap="round" stroke-miterlimit="10" d="M364.166,228.416
		c0,0,37.692,9.221,55.858-18.843"/>
</g>
<g id="White" display="none">
	<rect x="242.916" y="102.917" width="154.168" height="154.167"/>
	<path display="inline" fill="#FFFFFF" d="M332.421,180.579c3.916,2.535,7.103,5.517,9.563,8.921l53.599-63.079L332.421,180.579z"/>
	<path display="inline" fill="#FFFFFF" d="M324.278,215.915c-4.317,0-7.465-0.74-7.79-0.819c-1.341-0.328-2.162-1.681-1.834-3.022
		c0.328-1.34,1.676-2.161,3.02-1.835c0.706,0.17,16.555,3.81,24.714-7.595c-1.511-7.057-5.464-13.206-12.722-17.892
		c-3.47-2.241-7.607-3.27-12.269-3.27c-52.211,0-170.897,128.937-170.897,128.937l133.833,1.667c0,0,63.228-62.155,62.774-102.745
		C337.231,214.693,329.801,215.915,324.278,215.915z M310.417,193.764c0-3.129,2.537-5.667,5.667-5.667
		c3.129,0,5.667,2.537,5.667,5.667c0,3.13-2.537,5.667-5.667,5.667C312.954,199.431,310.417,196.894,310.417,193.764z"/>
</g>
</svg>
