<?xml version="1.0" encoding="utf-8"?>
<!-- Generator: Adobe Illustrator 16.0.0, SVG Export Plug-In . SVG Version: 6.00 Build 0)  -->
<!DOCTYPE svg PUBLIC "-//W3C//DTD SVG 1.1//EN" "http://www.w3.org/Graphics/SVG/1.1/DTD/svg11.dtd">
<svg version="1.1" id="Normal" xmlns="http://www.w3.org/2000/svg" xmlns:xlink="http://www.w3.org/1999/xlink" x="0px" y="0px"
	 width="150px" height="150px" viewBox="0 0 150 150" enable-background="new 0 0 150 150" xml:space="preserve">
<g>
	<defs>
		<rect id="SVGID_1_" width="150" height="150"/>
	</defs>
	<clipPath id="SVGID_2_">
		<use xlink:href="#SVGID_1_"  overflow="visible"/>
	</clipPath>
	
		<polygon id="Normal_Horn" clip-path="url(#SVGID_2_)" fill="#FFFFFF" stroke="#000000" stroke-width="3.8919" stroke-miterlimit="19" points="
		83.582,59.514 132.567,17.511 91.909,65.361 	"/>
	<g clip-path="url(#SVGID_2_)">
		<path fill="#FFFFFF" d="M-97.832,181.388l3.693-4.012c4.745-5.154,116.79-126.237,168.067-126.237
			c5.127,0,9.587,1.202,13.257,3.571c8.325,5.375,13.042,12.958,14.019,22.536c4.086,40.034-58.948,102.495-61.633,105.134
			l-0.723,0.71L-97.832,181.388z"/>
		<path d="M73.928,53.572c4.536,0,8.561,1.001,11.938,3.182c47.106,30.416-48,123.892-48,123.892l-130.215-1.622
			C-92.349,179.023,23.128,53.572,73.928,53.572 M73.928,48.707c-22.297,0-57.767,21.518-105.424,63.958
			c-34.995,31.163-64.143,62.749-64.433,63.064l-7.386,8.023l10.904,0.136l130.215,1.622l2.026,0.025l1.445-1.42
			c2.719-2.673,66.551-65.933,62.348-107.116c-1.056-10.35-6.143-18.537-15.12-24.333C84.435,50.039,79.531,48.707,73.928,48.707
			L73.928,48.707z"/>
	</g>
	<circle clip-path="url(#SVGID_2_)" fill="#FF4500" cx="72.65" cy="65.523" r="5.513"/>
	
		<path clip-path="url(#SVGID_2_)" fill="none" stroke="#000000" stroke-width="4.8648" stroke-linecap="round" stroke-miterlimit="10" d="
		M73.622,83.916c0,0,18.337,4.486,27.175-9.167"/>
</g>
</svg>
