<?xml version="1.0" encoding="utf-8"?>
<!-- Generator: Adobe Illustrator 16.0.0, SVG Export Plug-In . SVG Version: 6.00 Build 0)  -->
<!DOCTYPE svg PUBLIC "-//W3C//DTD SVG 1.1//EN" "http://www.w3.org/Graphics/SVG/1.1/DTD/svg11.dtd">
<svg version="1.1" id="White" xmlns="http://www.w3.org/2000/svg" xmlns:xlink="http://www.w3.org/1999/xlink" x="0px" y="0px"
	 width="150px" height="150px" viewBox="0 0 150 150" enable-background="new 0 0 150 150" xml:space="preserve">
<g>
	<defs>
		<rect id="SVGID_1_" width="150" height="150"/>
	</defs>
	<clipPath id="SVGID_2_">
		<use xlink:href="#SVGID_1_"  overflow="visible"/>
	</clipPath>
	<path clip-path="url(#SVGID_2_)" fill="#FFFFFF" d="M88.545,52.694c3.81,2.467,6.911,5.368,9.305,8.68L150,0L88.545,52.694z"/>
	<path clip-path="url(#SVGID_2_)" fill="#FFFFFF" d="M80.623,87.075c-4.201,0-7.264-0.72-7.579-0.797
		c-1.304-0.319-2.104-1.636-1.784-2.94c0.319-1.304,1.631-2.103,2.938-1.786c0.687,0.166,16.107,3.707,24.045-7.39
		c-1.47-6.866-5.316-12.849-12.377-17.409c-3.376-2.18-7.401-3.182-11.938-3.182c-50.8,0-166.277,125.452-166.277,125.452
		l130.215,1.622c0,0,61.518-60.476,61.077-99.968C93.226,85.887,85.996,87.075,80.623,87.075z M67.136,65.523
		c0-3.045,2.468-5.513,5.514-5.513c3.044,0,5.513,2.468,5.513,5.513c0,3.045-2.469,5.514-5.513,5.514
		C69.604,71.037,67.136,68.568,67.136,65.523z"/>
</g>
</svg>
